<svg width="45" height="39" viewBox="0 0 45 39" fill="none" xmlns="http://www.w3.org/2000/svg">
<path d="M1.50037 1.50037L2.1453 1.66642C5.35902 2.49389 6.96587 2.90761 7.88494 3.8926C8.80404 4.87756 8.80404 6.18589 8.80404 8.80256V13.7239C8.80404 19.0428 8.80404 21.7022 10.9432 23.3546C13.0824 25.0071 16.5254 25.0071 23.4114 25.0071H28.2805M42.8878 25.0071H38.0187" stroke="#9BBDA2" stroke-width="3" stroke-linecap="round"/>
<path d="M15.3427 30.0404C17.4437 30.0404 19.1469 31.712 19.1469 33.7739C19.1469 35.8357 17.4437 37.5073 15.3427 37.5073C13.2416 37.5073 11.5384 35.8357 11.5384 33.7739C11.5384 31.712 13.2416 30.0404 15.3427 30.0404Z" stroke="#9BBDA2" stroke-width="3"/>
<path d="M38.1683 30.0404C40.2693 30.0404 41.9725 31.7118 41.9725 33.7739C41.9725 35.8357 40.2693 37.5073 38.1683 37.5073C36.0673 37.5073 34.364 35.8357 34.364 33.7739C34.364 31.7118 36.0673 30.0404 38.1683 30.0404Z" stroke="#9BBDA2" stroke-width="3"/>
<path d="M9.0022 6.81013H15.0244M10.0059 15.9363H31.1274C33.0533 15.9363 34.0162 15.9363 34.7704 15.6134C35.5246 15.2903 35.904 14.7155 36.6626 13.5659L37.523 12.2621C39.1479 9.79953 39.9605 8.56827 39.0681 7.6892C38.1754 6.81014 36.113 6.81013 31.9877 6.81013H23.054" stroke="#9BBDA2" stroke-width="3" stroke-linecap="round"/>
</svg>
