<svg width="37" height="38" viewBox="0 0 37 38" fill="none" xmlns="http://www.w3.org/2000/svg">
<path d="M18.187 17.1121C20.2559 17.1121 21.9331 15.5666 21.9331 13.6602C21.9331 11.7537 20.2559 10.2082 18.187 10.2082C16.1181 10.2082 14.441 11.7537 14.441 13.6602C14.441 15.5666 16.1181 17.1121 18.187 17.1121Z" stroke="#9BBDA2" stroke-width="3"/>
<path d="M25.5939 24.0944C25.5939 26.0009 25.5939 27.5463 18.187 27.5463C10.78 27.5463 10.78 26.0009 10.78 24.0944C10.78 22.1879 14.0962 20.6425 18.187 20.6425C22.2777 20.6425 25.5939 22.1879 25.5939 24.0944Z" stroke="#9ABDA2" stroke-width="3"/>
<path d="M1.5 16.1259C1.5 10.5693 1.5 7.79106 2.19996 6.85638C2.89991 5.92171 5.68718 5.02751 11.2617 3.2391L12.3238 2.89838C15.2297 1.96613 16.6826 1.5 18.187 1.5C19.6914 1.5 21.1443 1.96613 24.0503 2.89838L25.1123 3.2391C30.6869 5.02751 33.4742 5.92171 34.1741 6.85638C34.874 7.79106 34.874 10.5693 34.874 16.1259C34.874 16.9651 34.874 17.8753 34.874 18.8623C34.874 23.2151 33.3225 26.5726 31.1658 29.137M1.85755 22.3527C3.4473 29.8222 9.98518 33.6704 14.2907 35.4331C15.6283 35.9807 16.2971 36.2545 18.187 36.2545C20.0769 36.2545 20.7457 35.9807 22.0832 35.4331C23.1553 34.9942 24.3657 34.4261 25.6035 33.7049" stroke="#9BBDA2" stroke-width="3" stroke-linecap="round"/>
</svg>
