<svg width="45" height="49" viewBox="0 0 45 49" fill="none" xmlns="http://www.w3.org/2000/svg">
<path d="M21.0137 4.39429V22.9467" stroke="#ECE4C0" stroke-width="2"/>
<path d="M12.4393 8.2478L17.339 9.47271" stroke="#ECE4C0" stroke-width="2" stroke-linecap="round"/>
<path d="M12.4393 13.1475L17.339 14.3724" stroke="#ECE4C0" stroke-width="2" stroke-linecap="round"/>
<path d="M29.5881 13.1475L24.6885 14.3724" stroke="#ECE4C0" stroke-width="2" stroke-linecap="round"/>
<path d="M29.5881 3.96069V8.87294C29.5881 9.2105 29.5881 9.37928 29.4719 9.4475C29.3558 9.51566 29.1969 9.44025 28.879 9.28928L27.3574 8.56649C27.2499 8.51543 27.1961 8.48989 27.1383 8.48989C27.0805 8.48989 27.0267 8.51543 26.9192 8.56649L25.3976 9.28928C25.0797 9.44025 24.9208 9.51566 24.8047 9.4475C24.6885 9.37928 24.6885 9.2105 24.6885 8.87294V5.73684" stroke="#ECE4C0" stroke-width="2" stroke-linecap="round"/>
<path d="M34.1815 10.1323C34.1815 9.6249 33.7702 9.21356 33.2628 9.21356C32.7555 9.21356 32.3442 9.6249 32.3442 10.1323H34.1815ZM32.3442 5.79804C32.3442 6.30541 32.7555 6.71672 33.2628 6.71672C33.7702 6.71672 34.1815 6.30541 34.1815 5.79804H32.3442ZM7.84595 10.1718C7.84595 10.6792 8.25726 11.0905 8.76463 11.0905C9.272 11.0905 9.68331 10.6792 9.68331 10.1718H7.84595ZM9.68331 14.3724C9.68331 13.8651 9.272 13.4537 8.76463 13.4537C8.25726 13.4537 7.84595 13.8651 7.84595 14.3724H9.68331ZM30.8815 0.00200279C29.4871 0.0505705 27.6645 0.195625 26.2624 0.615377L26.7893 2.37556C27.952 2.0275 29.5749 1.886 30.9454 1.83825L30.8815 0.00200279ZM26.2624 0.615377C25.0436 0.980266 23.6725 1.69297 22.6039 2.31149L23.5242 3.90173C24.566 3.29884 25.7846 2.67634 26.7893 2.37556L26.2624 0.615377ZM11.1365 1.90708C12.3198 1.97981 13.6599 2.12121 14.6548 2.38374L15.1236 0.607195C13.9467 0.296631 12.4579 0.147461 11.2493 0.0731701L11.1365 1.90708ZM14.6548 2.38374C15.8333 2.69474 17.2837 3.37511 18.4802 4.00779L19.339 2.38352C18.1197 1.73875 16.5155 0.974472 15.1236 0.607195L14.6548 2.38374ZM23.4396 22.6174C24.6534 21.9703 26.1569 21.257 27.3727 20.9361L26.9038 19.1596C25.4703 19.5379 23.8098 20.3378 22.5753 20.996L23.4396 22.6174ZM27.3727 20.9361C28.3562 20.6765 29.6778 20.5353 30.8522 20.4619L30.7374 18.6281C29.5369 18.7032 28.0681 18.8524 26.9038 19.1596L27.3727 20.9361ZM19.4522 20.996C18.2176 20.3378 16.5571 19.5379 15.1236 19.1596L14.6548 20.9361C15.8706 21.257 17.374 21.9703 18.5879 22.6174L19.4522 20.996ZM15.1236 19.1596C13.9594 18.8524 12.4905 18.7032 11.29 18.6281L11.1753 20.4619C12.3497 20.5353 13.6712 20.6765 14.6548 20.9361L15.1236 19.1596ZM32.3442 16.9981C32.3442 17.8381 31.648 18.5712 30.7374 18.6281L30.8522 20.4619C32.658 20.3489 34.1815 18.8798 34.1815 16.9981H32.3442ZM34.1815 3.26638C34.1815 1.47397 32.7541 -0.0632237 30.8815 0.00200279L30.9454 1.83825C31.6985 1.81203 32.3442 2.4315 32.3442 3.26638H34.1815ZM7.84595 16.9981C7.84595 18.8798 9.36947 20.3489 11.1753 20.4619L11.29 18.6281C10.3794 18.5712 9.68331 17.8381 9.68331 16.9981H7.84595ZM22.5753 20.996C21.6048 21.5133 20.4227 21.5133 19.4522 20.996L18.5879 22.6174C20.0986 23.4227 21.9289 23.4227 23.4396 22.6174L22.5753 20.996ZM22.6039 2.31149C21.6018 2.89143 20.3544 2.92035 19.339 2.38352L18.4802 4.00779C20.0631 4.84477 21.9826 4.79392 23.5242 3.90173L22.6039 2.31149ZM9.68331 3.34552C9.68331 2.49154 10.36 1.85935 11.1365 1.90708L11.2493 0.0731701C9.34055 -0.0441396 7.84595 1.50918 7.84595 3.34552H9.68331ZM34.1815 16.9981V10.1323H32.3442V16.9981H34.1815ZM34.1815 5.79804V3.26638H32.3442V5.79804H34.1815ZM9.68331 10.1718V3.34552H7.84595V10.1718H9.68331ZM9.68331 16.9981V14.3724H7.84595V16.9981H9.68331Z" fill="#ECE4C0"/>
<path d="M1.00006 43.9188H6.71636C9.27324 43.9188 11.8576 44.2103 14.3461 44.7713C18.0053 47.1515 25.631 47.7554 29.4134 46.0039M25.4757 35.9724C25.7787 35.9339 26.0691 35.8899 26.3463 35.8414C28.5021 35.4648 30.5866 34.0912 32.3582 32.6268L36.9294 28.8487C38.5408 27.5166 36.5689 27.7441 42.5444 28.8479C43.9955 30.0468 44.4392 32.0207 43.5218 33.6295C42.4521 35.506 40.9448 37.9064 39.4975 39.373M25.4757 35.9724C25.3844 35.984 25.292 35.995 25.1985 36.0056M25.4757 35.9724C25.8445 35.886 26.2105 35.6369 26.5542 35.3089C27.3716 33.7984 28.2838 31.1367 26.8722 29.4017C26.5449 28.9992 26.1614 28.6635 25.7354 28.3854C16.1997 32.0433 7.65095 27.2847 1.00006 32.4455M25.4757 35.9724C25.3834 35.9939 25.2908 36.0056 25.1985 36.0056M25.1985 36.0056C23.8746 36.1542 22.326 36.1927 20.6076 36.015" stroke="#9BBDA2" stroke-width="2" stroke-linecap="round"/>
</svg>
