<svg width="46" height="42" viewBox="0 0 46 42" fill="none" xmlns="http://www.w3.org/2000/svg">
<path d="M10.1867 12.6088C4.89835 13.6799 2.25419 14.2154 1.6251 16.0263C0.996016 17.8371 2.79864 19.7242 6.40386 23.4979L7.33657 24.4743C8.36107 25.5466 8.8733 26.0828 9.10374 26.7462C9.3342 27.4096 9.25676 28.125 9.10185 29.5559L8.96085 30.8585C8.41578 35.8936 8.14325 38.4112 9.79021 39.5303C11.4372 40.6495 13.9129 39.6291 18.8644 37.5884L20.1454 37.0603C21.5523 36.4804 22.2558 36.1904 23.0016 36.1904C23.7475 36.1904 24.4509 36.4804 25.8579 37.0603L27.1389 37.5884C32.0903 39.6291 34.566 40.6495 36.2131 39.5303C37.86 38.4112 37.5874 35.8936 37.0424 30.8585M39.5994 23.4979C43.2047 19.7242 45.0073 17.8371 44.3782 16.0263C43.7491 14.2154 41.1048 13.6799 35.8167 12.6088L34.4484 12.3317C32.9456 12.0273 32.1944 11.8752 31.5911 11.4652C30.9876 11.0552 30.6008 10.4338 29.8268 9.19112L29.1222 8.05973C26.399 3.68657 25.0375 1.5 23.0016 1.5C20.9658 1.5 19.6042 3.68659 16.8809 8.05974" stroke="#ECE4C0" stroke-width="3" stroke-linecap="round"/>
</svg>
